<svg xmlns="http://www.w3.org/2000/svg" viewBox="0 0 781.3 296.2"><g transform="translate(30.0,38.1) scale(0.278129)"><path fill-rule="evenodd" fill="#131414" d="M 0.00 212.00 L 0.00 10.00 Q 0.00 0.00 10.00 0.00 L 174.28 0.00 Q 232.00 0.00 232.00 57.72 L 232.00 60.08 Q 232.00 117.80 179.99 142.83 L 93.48 184.47 Q 82.00 190.00 69.26 190.00 L 64.00 190.00 Q 56.00 190.00 56.00 198.00 L 56.00 212.00 Q 56.00 222.00 46.00 222.00 L 10.00 222.00 Q 0.00 222.00 0.00 212.00 Z M 78.00 126.00 L 78.00 76.00 Q 78.00 46.00 108.00 46.00 L 172.00 46.00 Q 202.00 46.00 202.00 76.00 L 202.00 126.00 Q 202.00 156.00 172.00 156.00 L 108.00 156.00 Q 78.00 156.00 78.00 126.00 Z"/><path fill="#4E4F50" d="M 206.00 499.00 L 206.00 444.00 Q 206.00 437.00 213.00 437.00 L 355.00 437.00 Q 362.00 437.00 362.00 444.00 L 362.00 499.00 Q 362.00 506.00 355.00 506.00 L 213.00 506.00 Q 206.00 506.00 206.00 499.00 Z"/><path fill="#4E4F50" d="M 372.00 499.00 L 372.00 444.00 Q 372.00 437.00 379.00 437.00 L 531.00 437.00 Q 538.00 437.00 538.00 444.00 L 538.00 499.00 Q 538.00 506.00 531.00 506.00 L 379.00 506.00 Q 372.00 506.00 372.00 499.00 Z"/><path fill="#4E4F50" d="M 185.00 610.00 L 185.00 528.00 Q 185.00 521.00 192.00 521.00 L 374.00 521.00 Q 381.00 521.00 381.00 528.00 L 381.00 610.00 Q 381.00 617.00 374.00 617.00 L 192.00 617.00 Q 185.00 617.00 185.00 610.00 Z"/><path fill="#4E4F50" d="M 391.00 610.00 L 391.00 528.00 Q 391.00 521.00 398.00 521.00 L 589.00 521.00 Q 596.00 521.00 596.00 528.00 L 596.00 610.00 Q 596.00 617.00 589.00 617.00 L 398.00 617.00 Q 391.00 617.00 391.00 610.00 Z"/><path fill="#F1B507" d="M 60.00 784.00 L 60.00 648.00 Q 60.00 641.00 67.00 641.00 L 268.00 641.00 Q 275.00 641.00 275.00 648.00 L 275.00 784.00 Q 275.00 791.00 268.00 791.00 L 67.00 791.00 Q 60.00 791.00 60.00 784.00 Z"/><path fill="#4E4F50" d="M 280.00 784.00 L 280.00 641.00 Q 280.00 634.00 287.00 634.00 L 523.00 634.00 Q 530.00 634.00 530.00 641.00 L 530.00 784.00 Q 530.00 791.00 523.00 791.00 L 287.00 791.00 Q 280.00 791.00 280.00 784.00 Z"/><path fill="#4E4F50" d="M 527.00 784.00 L 527.00 641.00 Q 527.00 634.00 534.00 634.00 L 790.00 634.00 Q 797.00 634.00 797.00 641.00 L 797.00 784.00 Q 797.00 791.00 790.00 791.00 L 534.00 791.00 Q 527.00 791.00 527.00 784.00 Z"/></g><line x1="297.7" y1="48.1" x2="297.7" y2="248.1" stroke="#D8D5D0" stroke-width="4"/><g transform="translate(343.7,143.4)" fill="#131414"><path transform="translate(0.00,0) scale(0.108000,-0.108000)" d="M339 252H233V0H62V702H339Q423 702 481.0 673.0Q539 644 568.0 593.0Q597 542 597 476Q597 415 569.0 364.5Q541 314 483.0 283.0Q425 252 339 252ZM423 476Q423 518 399.0 541.0Q375 564 326 564H233V388H326Q375 388 399.0 411.0Q423 434 423 476Z"/><path transform="translate(68.39,0) scale(0.108000,-0.108000)" d="M499 124H237L195 0H16L270 702H468L722 0H541ZM455 256 368 513 282 256Z"/><path transform="translate(148.99,0) scale(0.108000,-0.108000)" d="M721 702 472 0H258L9 702H191L365 172L540 702Z"/><path transform="translate(228.83,0) scale(0.108000,-0.108000)" d="M233 702V0H62V702Z"/><path transform="translate(261.69,0) scale(0.108000,-0.108000)" d="M690 0H519L233 433V0H62V702H233L519 267V702H690Z"/><path transform="translate(343.90,0) scale(0.108000,-0.108000)" d="M528 480Q509 515 473.5 533.5Q438 552 390 552Q307 552 257.0 497.5Q207 443 207 352Q207 255 259.5 200.5Q312 146 404 146Q467 146 510.5 178.0Q554 210 574 270H357V396H729V237Q710 173 664.5 118.0Q619 63 549.0 29.0Q479 -5 391 -5Q287 -5 205.5 40.5Q124 86 78.5 167.0Q33 248 33 352Q33 456 78.5 537.5Q124 619 205.0 664.5Q286 710 390 710Q516 710 602.5 649.0Q689 588 717 480Z"/></g><line x1="343.7" y1="200.6" x2="377.7" y2="200.6" stroke="#F1B507" stroke-width="3"/><g transform="translate(393.7,213.4)" fill="#F1B507"><path transform="translate(0.00,0) scale(0.040000,-0.040000)" d="M230 702V282Q230 219 261.0 185.0Q292 151 352 151Q412 151 444.0 185.0Q476 219 476 282V702H647V283Q647 189 607.0 124.0Q567 59 499.5 26.0Q432 -7 349 -7Q266 -7 200.5 25.5Q135 58 97.0 123.5Q59 189 59 283V702Z"/><path transform="translate(38.20,0) scale(0.040000,-0.040000)" d="M690 0H519L233 433V0H62V702H233L519 267V702H690Z"/><path transform="translate(78.28,0) scale(0.040000,-0.040000)" d="M233 132H457V0H62V702H233Z"/><path transform="translate(107.36,0) scale(0.040000,-0.040000)" d="M233 702V0H62V702Z"/><path transform="translate(129.16,0) scale(0.040000,-0.040000)" d="M857 702V0H686V421L529 0H391L233 422V0H62V702H264L461 216L656 702Z"/><path transform="translate(175.88,0) scale(0.040000,-0.040000)" d="M233 702V0H62V702Z"/><path transform="translate(197.68,0) scale(0.040000,-0.040000)" d="M567 702V565H381V0H210V565H24V702Z"/><path transform="translate(231.32,0) scale(0.040000,-0.040000)" d="M233 565V423H462V291H233V137H492V0H62V702H492V565Z"/><path transform="translate(262.96,0) scale(0.040000,-0.040000)" d="M693 351Q693 248 647.5 168.0Q602 88 518.5 44.0Q435 0 325 0H62V702H325Q436 702 519.0 658.0Q602 614 647.5 534.5Q693 455 693 351ZM519 351Q519 448 465.0 502.0Q411 556 314 556H233V148H314Q411 148 465.0 201.0Q519 254 519 351Z"/></g><line x1="701.7" y1="200.6" x2="735.7" y2="200.6" stroke="#F1B507" stroke-width="3"/><g transform="translate(343.7,258.5)" fill="#6B6B6C"><path transform="translate(0.00,0) scale(0.022000,-0.022000)" d="M581 187Q581 134 553.5 91.5Q526 49 474.0 24.5Q422 0 353 0H75V695H340Q411 695 462.0 671.0Q513 647 539.0 606.5Q565 566 565 516Q565 456 533.0 416.0Q501 376 447 357Q503 347 542.0 298.0Q581 249 581 187ZM189 403H330Q386 403 417.5 428.5Q449 454 449 502Q449 549 417.5 575.5Q386 602 330 602H189ZM467 199Q467 250 432.0 280.0Q397 310 339 310H189V93H343Q401 93 434.0 121.0Q467 149 467 199Z"/><path transform="translate(17.46,0) scale(0.022000,-0.022000)" d="M188 695V252Q188 173 229.5 133.0Q271 93 345 93Q420 93 461.5 133.0Q503 173 503 252V695H617V254Q617 169 580.0 110.0Q543 51 481.0 22.0Q419 -7 344 -7Q269 -7 207.5 22.0Q146 51 110.0 110.0Q74 169 74 254V695Z"/><path transform="translate(36.24,0) scale(0.022000,-0.022000)" d="M189 695V0H75V695Z"/><path transform="translate(45.65,0) scale(0.022000,-0.022000)" d="M189 92H424V0H75V695H189Z"/><path transform="translate(59.02,0) scale(0.022000,-0.022000)" d="M524 695V602H339V0H225V602H39V695Z"/><path transform="translate(84.34,0) scale(0.022000,-0.022000)" d="M37 349Q37 451 84.5 532.0Q132 613 213.5 658.5Q295 704 392 704Q490 704 571.5 658.5Q653 613 700.0 532.0Q747 451 747 349Q747 247 700.0 165.5Q653 84 571.5 38.5Q490 -7 392 -7Q295 -7 213.5 38.5Q132 84 84.5 165.5Q37 247 37 349ZM630 349Q630 426 599.5 484.0Q569 542 515.0 573.0Q461 604 392 604Q323 604 269.0 573.0Q215 542 184.5 484.0Q154 426 154 349Q154 272 184.5 213.5Q215 155 269.0 123.5Q323 92 392 92Q461 92 515.0 123.5Q569 155 599.5 213.5Q630 272 630 349Z"/><path transform="translate(105.19,0) scale(0.022000,-0.022000)" d="M646 0H532L189 519V0H75V696H189L532 178V696H646Z"/><path transform="translate(133.97,0) scale(0.022000,-0.022000)" d="M613 -126 491 6Q446 -7 392 -7Q295 -7 213.5 38.5Q132 84 84.5 165.5Q37 247 37 349Q37 451 84.5 532.0Q132 613 213.5 658.5Q295 704 392 704Q490 704 571.5 658.5Q653 613 700.0 532.0Q747 451 747 349Q747 253 705.5 175.5Q664 98 591 51L758 -126ZM392 92Q461 92 515.0 123.5Q569 155 599.5 213.5Q630 272 630 349Q630 426 599.5 484.0Q569 542 515.0 573.0Q461 604 392 604Q323 604 269.0 573.0Q215 542 184.5 484.0Q154 426 154 349Q154 272 184.5 213.5Q215 155 269.0 123.5Q323 92 392 92Z"/><path transform="translate(154.89,0) scale(0.022000,-0.022000)" d="M188 695V252Q188 173 229.5 133.0Q271 93 345 93Q420 93 461.5 133.0Q503 173 503 252V695H617V254Q617 169 580.0 110.0Q543 51 481.0 22.0Q419 -7 344 -7Q269 -7 207.5 22.0Q146 51 110.0 110.0Q74 169 74 254V695Z"/><path transform="translate(173.67,0) scale(0.022000,-0.022000)" d="M494 142H203L153 0H34L283 696H415L664 0H544ZM462 235 349 558 235 235Z"/><path transform="translate(192.60,0) scale(0.022000,-0.022000)" d="M189 92H424V0H75V695H189Z"/><path transform="translate(205.97,0) scale(0.022000,-0.022000)" d="M189 695V0H75V695Z"/><path transform="translate(215.38,0) scale(0.022000,-0.022000)" d="M524 695V602H339V0H225V602H39V695Z"/><path transform="translate(231.39,0) scale(0.022000,-0.022000)" d="M590 695 360 252V0H246V252L15 695H142L303 354L464 695Z"/><path transform="translate(257.62,0) scale(0.022000,-0.022000)" d="M58 192H180Q184 147 215.5 118.0Q247 89 304 89Q363 89 396.0 117.5Q429 146 429 191Q429 226 408.5 248.0Q388 270 357.5 282.0Q327 294 273 308Q205 326 162.5 344.5Q120 363 90.0 402.0Q60 441 60 506Q60 566 90.0 611.0Q120 656 174.0 680.0Q228 704 299 704Q400 704 464.5 653.5Q529 603 536 515H410Q407 553 374.0 580.0Q341 607 287 607Q238 607 207.0 582.0Q176 557 176 510Q176 478 195.5 457.5Q215 437 245.0 425.0Q275 413 327 399Q396 380 439.5 361.0Q483 342 513.5 302.5Q544 263 544 197Q544 144 515.5 97.0Q487 50 432.5 21.5Q378 -7 304 -7Q234 -7 178.0 17.5Q122 42 90.0 87.0Q58 132 58 192Z"/><path transform="translate(274.50,0) scale(0.022000,-0.022000)" d="M189 695V0H75V695Z"/><path transform="translate(283.91,0) scale(0.022000,-0.022000)" d="M646 0H532L189 519V0H75V696H189L532 178V696H646Z"/><path transform="translate(303.37,0) scale(0.022000,-0.022000)" d="M392 704Q503 704 589.5 649.5Q676 595 715 495H578Q551 550 503.0 577.0Q455 604 392 604Q323 604 269.0 573.0Q215 542 184.5 484.0Q154 426 154 349Q154 272 184.5 214.0Q215 156 269.0 124.5Q323 93 392 93Q455 93 503.0 120.0Q551 147 578 202H715Q676 102 589.5 48.0Q503 -6 392 -6Q294 -6 213.0 39.5Q132 85 84.5 166.0Q37 247 37 349Q37 451 84.5 532.0Q132 613 213.5 658.5Q295 704 392 704Z"/><path transform="translate(323.98,0) scale(0.022000,-0.022000)" d="M189 603V399H429V306H189V93H459V0H75V696H459V603Z"/><path transform="translate(348.43,0) scale(0.022000,-0.022000)" d="M45 625V729H253V0H138V625Z"/><path transform="translate(359.73,0) scale(0.022000,-0.022000)" d="M334 96Q405 96 438.0 152.0Q471 208 471 343Q447 309 403.5 290.5Q360 272 309 272Q244 272 191.0 298.5Q138 325 107.5 377.5Q77 430 77 505Q77 615 141.5 680.5Q206 746 319 746Q455 746 512.5 655.5Q570 565 570 378Q570 249 548.5 167.0Q527 85 474.0 43.0Q421 1 327 1Q220 1 162.0 57.0Q104 113 97 198H202Q212 148 245.0 122.0Q278 96 334 96ZM458 505Q458 574 421.5 612.5Q385 651 322 651Q259 651 222.5 611.5Q186 572 186 508Q186 447 221.5 407.5Q257 368 329 368Q389 368 423.5 405.5Q458 443 458 505Z"/><path transform="translate(377.30,0) scale(0.022000,-0.022000)" d="M79 545Q79 599 106.0 644.0Q133 689 187.0 715.5Q241 742 319 742Q396 742 450.5 715.5Q505 689 532.0 644.0Q559 599 559 545Q559 489 530.5 446.5Q502 404 455 381Q512 360 545.0 312.5Q578 265 578 201Q578 136 545.0 86.0Q512 36 453.0 9.0Q394 -18 319 -18Q244 -18 185.5 9.0Q127 36 94.0 86.0Q61 136 61 201Q61 266 94.0 313.0Q127 360 183 381Q79 433 79 545ZM319 647Q259 647 224.0 617.0Q189 587 189 530Q189 480 225.5 448.5Q262 417 319 417Q376 417 413.0 449.0Q450 481 450 531Q450 587 415.0 617.0Q380 647 319 647ZM170 205Q170 148 210.0 112.5Q250 77 319 77Q387 77 426.5 113.0Q466 149 466 205Q466 265 425.5 298.0Q385 331 319 331Q253 331 211.5 298.5Q170 266 170 205Z"/><path transform="translate(394.93,0) scale(0.022000,-0.022000)" d="M123 155Q219 238 274.5 291.5Q330 345 367.0 403.0Q404 461 404 519Q404 579 375.5 613.0Q347 647 286 647Q227 647 194.5 609.5Q162 572 160 509H50Q53 623 118.5 683.5Q184 744 285 744Q394 744 455.5 684.0Q517 624 517 524Q517 452 480.5 385.5Q444 319 393.5 266.5Q343 214 265 145L220 105H537V10H51V93Z"/></g></svg>